<mxfile host="app.diagrams.net" modified="2022-11-23T04:55:53.343Z" agent="5.0 (Windows NT 10.0; Win64; x64) AppleWebKit/537.36 (KHTML, like Gecko) Chrome/107.0.0.0 Safari/537.36" version="20.6.0" etag="1BkwL1cUp_mGum87s8_j" type="github">
  <diagram id="PrPMWTKknmVzqEdROyOC" name="第 1 页">
    <mxGraphModel dx="1209" dy="729" grid="1" gridSize="10" guides="1" tooltips="1" connect="1" arrows="1" fold="1" page="1" pageScale="1" pageWidth="827" pageHeight="1169" math="1" shadow="0">
      <root>
        <mxCell id="0" />
        <mxCell id="1" parent="0" />
        <mxCell id="gVNOACa7D2izH39yQ2hB-10" value="" style="group" vertex="1" connectable="0" parent="1">
          <mxGeometry x="100" y="570" width="160" height="260" as="geometry" />
        </mxCell>
        <mxCell id="gVNOACa7D2izH39yQ2hB-8" value="" style="rounded=0;whiteSpace=wrap;html=1;shadow=0;fontSize=16;" vertex="1" parent="gVNOACa7D2izH39yQ2hB-10">
          <mxGeometry width="160" height="260" as="geometry" />
        </mxCell>
        <mxCell id="gVNOACa7D2izH39yQ2hB-5" value="" style="rounded=0;whiteSpace=wrap;html=1;shadow=0;fontSize=16;" vertex="1" parent="gVNOACa7D2izH39yQ2hB-10">
          <mxGeometry x="10" y="40" width="140" height="160" as="geometry" />
        </mxCell>
        <mxCell id="gVNOACa7D2izH39yQ2hB-1" value="&lt;font style=&quot;font-size: 16px;&quot;&gt;SAGEConv&lt;/font&gt;" style="rounded=0;whiteSpace=wrap;html=1;" vertex="1" parent="gVNOACa7D2izH39yQ2hB-10">
          <mxGeometry x="20" y="80" width="120" height="30" as="geometry" />
        </mxCell>
        <mxCell id="gVNOACa7D2izH39yQ2hB-2" value="&lt;font style=&quot;font-size: 16px;&quot;&gt;relu&lt;/font&gt;" style="rounded=0;whiteSpace=wrap;html=1;" vertex="1" parent="gVNOACa7D2izH39yQ2hB-10">
          <mxGeometry x="20" y="120" width="120" height="30" as="geometry" />
        </mxCell>
        <mxCell id="gVNOACa7D2izH39yQ2hB-3" value="&lt;font style=&quot;font-size: 16px;&quot;&gt;dropout&lt;/font&gt;" style="rounded=0;whiteSpace=wrap;html=1;" vertex="1" parent="gVNOACa7D2izH39yQ2hB-10">
          <mxGeometry x="20" y="160" width="120" height="30" as="geometry" />
        </mxCell>
        <mxCell id="gVNOACa7D2izH39yQ2hB-6" value="gnn layer" style="text;html=1;strokeColor=none;fillColor=none;align=center;verticalAlign=middle;whiteSpace=wrap;rounded=0;shadow=0;fontSize=16;" vertex="1" parent="gVNOACa7D2izH39yQ2hB-10">
          <mxGeometry x="25" y="40" width="110" height="30" as="geometry" />
        </mxCell>
        <mxCell id="gVNOACa7D2izH39yQ2hB-7" value="gnn layer" style="rounded=0;whiteSpace=wrap;html=1;shadow=0;fontSize=16;" vertex="1" parent="gVNOACa7D2izH39yQ2hB-10">
          <mxGeometry x="10" y="210" width="140" height="40" as="geometry" />
        </mxCell>
        <mxCell id="gVNOACa7D2izH39yQ2hB-9" value="backbone" style="text;html=1;strokeColor=none;fillColor=none;align=center;verticalAlign=middle;whiteSpace=wrap;rounded=0;shadow=0;fontSize=16;" vertex="1" parent="gVNOACa7D2izH39yQ2hB-10">
          <mxGeometry x="35" width="90" height="30" as="geometry" />
        </mxCell>
        <mxCell id="gVNOACa7D2izH39yQ2hB-18" value="" style="shape=cube;whiteSpace=wrap;html=1;boundedLbl=1;backgroundOutline=1;darkOpacity=0.05;darkOpacity2=0.1;shadow=0;fontSize=16;size=40;direction=east;" vertex="1" parent="1">
          <mxGeometry x="120" y="80" width="50" height="115" as="geometry" />
        </mxCell>
        <mxCell id="gVNOACa7D2izH39yQ2hB-23" value="$$x_s$$" style="text;html=1;strokeColor=none;fillColor=none;align=center;verticalAlign=middle;whiteSpace=wrap;rounded=0;shadow=0;fontSize=16;" vertex="1" parent="1">
          <mxGeometry x="100" y="50" width="60" height="30" as="geometry" />
        </mxCell>
        <mxCell id="gVNOACa7D2izH39yQ2hB-24" value="" style="shape=cube;whiteSpace=wrap;html=1;boundedLbl=1;backgroundOutline=1;darkOpacity=0.05;darkOpacity2=0.1;shadow=0;fontSize=16;size=40;direction=east;" vertex="1" parent="1">
          <mxGeometry x="120" y="230" width="50" height="115" as="geometry" />
        </mxCell>
        <mxCell id="gVNOACa7D2izH39yQ2hB-25" value="$$x_t$$" style="text;html=1;strokeColor=none;fillColor=none;align=center;verticalAlign=middle;whiteSpace=wrap;rounded=0;shadow=0;fontSize=16;" vertex="1" parent="1">
          <mxGeometry x="100" y="200" width="60" height="30" as="geometry" />
        </mxCell>
        <mxCell id="gVNOACa7D2izH39yQ2hB-28" value="" style="html=1;shadow=0;dashed=0;align=center;verticalAlign=middle;shape=mxgraph.arrows2.arrow;dy=0.67;dx=20;notch=0;fontSize=16;" vertex="1" parent="1">
          <mxGeometry x="176" y="147" width="60" height="25" as="geometry" />
        </mxCell>
        <mxCell id="gVNOACa7D2izH39yQ2hB-32" value="" style="html=1;shadow=0;dashed=0;align=center;verticalAlign=middle;shape=mxgraph.arrows2.arrow;dy=0.67;dx=20;notch=0;fontSize=16;" vertex="1" parent="1">
          <mxGeometry x="176" y="267" width="60" height="25" as="geometry" />
        </mxCell>
      </root>
    </mxGraphModel>
  </diagram>
</mxfile>
